<svg width="316" height="854" viewBox="0 0 316 854" fill="none" xmlns="http://www.w3.org/2000/svg">
<mask id="path-1-inside-1_175_1818" fill="white">
<path d="M0 5.99999C0 2.68629 2.68629 0 6 0H310C313.314 0 316 2.68629 316 6V404.818C316 408.132 313.314 410.818 310 410.818H6.00001C2.6863 410.818 0 408.132 0 404.818V5.99999Z"/>
</mask>
<path d="M0 5.99999C0 2.68629 2.68629 0 6 0H310C313.314 0 316 2.68629 316 6V404.818C316 408.132 313.314 410.818 310 410.818H6.00001C2.6863 410.818 0 408.132 0 404.818V5.99999Z" fill="#1A1F1B"/>
<path d="M99.3125 60.3633V63H87.6406V60.75L93.1602 54.832C93.7148 54.2148 94.1523 53.6719 94.4727 53.2031C94.793 52.7266 95.0234 52.3008 95.1641 51.9258C95.3125 51.543 95.3867 51.1797 95.3867 50.8359C95.3867 50.3203 95.3008 49.8789 95.1289 49.5117C94.957 49.1367 94.7031 48.8477 94.3672 48.6445C94.0391 48.4414 93.6328 48.3398 93.1484 48.3398C92.6328 48.3398 92.1875 48.4648 91.8125 48.7148C91.4453 48.9648 91.1641 49.3125 90.9688 49.7578C90.7812 50.2031 90.6875 50.707 90.6875 51.2695H87.3008C87.3008 50.2539 87.543 49.3242 88.0273 48.4805C88.5117 47.6289 89.1953 46.9531 90.0781 46.4531C90.9609 45.9453 92.0078 45.6914 93.2188 45.6914C94.4141 45.6914 95.4219 45.8867 96.2422 46.2773C97.0703 46.6602 97.6953 47.2148 98.1172 47.9414C98.5469 48.6602 98.7617 49.5195 98.7617 50.5195C98.7617 51.082 98.6719 51.6328 98.4922 52.1719C98.3125 52.7031 98.0547 53.2344 97.7188 53.7656C97.3906 54.2891 96.9922 54.8203 96.5234 55.3594C96.0547 55.8984 95.5352 56.457 94.9648 57.0352L92 60.3633H99.3125ZM109.648 45.9023V63H106.273V49.793L102.219 51.082V48.4219L109.285 45.9023H109.648ZM122.633 45.9375L116.375 64.4648H113.867L120.125 45.9375H122.633ZM132.336 45.9023V63H128.961V49.793L124.906 51.082V48.4219L131.973 45.9023H132.336ZM146.117 45.9023V63H142.742V49.793L138.688 51.082V48.4219L145.754 45.9023H146.117Z" fill="#F7DD43"/>
<path d="M172.57 57.3955C172.57 57.2178 172.543 57.0583 172.488 56.917C172.438 56.7712 172.342 56.639 172.201 56.5205C172.06 56.3975 171.862 56.2767 171.606 56.1582C171.351 56.0397 171.021 55.9167 170.615 55.7891C170.164 55.6432 169.736 55.4792 169.33 55.2969C168.929 55.1146 168.574 54.9027 168.264 54.6611C167.958 54.415 167.717 54.1302 167.539 53.8066C167.366 53.4831 167.279 53.1071 167.279 52.6787C167.279 52.264 167.37 51.888 167.553 51.5508C167.735 51.209 167.99 50.9173 168.318 50.6758C168.646 50.4297 169.034 50.2406 169.48 50.1084C169.932 49.9762 170.426 49.9102 170.964 49.9102C171.698 49.9102 172.338 50.0423 172.885 50.3066C173.432 50.571 173.855 50.9333 174.156 51.3936C174.462 51.8538 174.614 52.3802 174.614 52.9727H172.577C172.577 52.681 172.516 52.4258 172.393 52.207C172.274 51.9837 172.092 51.8083 171.846 51.6807C171.604 51.5531 171.299 51.4893 170.93 51.4893C170.574 51.4893 170.278 51.5439 170.041 51.6533C169.804 51.7581 169.626 51.9017 169.508 52.084C169.389 52.2617 169.33 52.4622 169.33 52.6855C169.33 52.8542 169.371 53.0068 169.453 53.1436C169.54 53.2803 169.667 53.4079 169.836 53.5264C170.005 53.6449 170.212 53.7565 170.458 53.8613C170.704 53.9661 170.989 54.0687 171.312 54.1689C171.855 54.333 172.331 54.5176 172.741 54.7227C173.156 54.9277 173.502 55.1579 173.78 55.4131C174.058 55.6683 174.268 55.9577 174.409 56.2812C174.55 56.6048 174.621 56.9717 174.621 57.3818C174.621 57.8148 174.537 58.2021 174.368 58.5439C174.2 58.8857 173.956 59.1751 173.637 59.4121C173.318 59.6491 172.937 59.8291 172.495 59.9521C172.053 60.0752 171.559 60.1367 171.012 60.1367C170.52 60.1367 170.034 60.0729 169.556 59.9453C169.077 59.8132 168.642 59.6149 168.25 59.3506C167.863 59.0863 167.553 58.749 167.32 58.3389C167.088 57.9287 166.972 57.4434 166.972 56.8828H169.029C169.029 57.1927 169.077 57.4548 169.173 57.6689C169.269 57.8831 169.403 58.0563 169.576 58.1885C169.754 58.3206 169.964 58.4163 170.205 58.4756C170.451 58.5348 170.72 58.5645 171.012 58.5645C171.367 58.5645 171.659 58.5143 171.887 58.4141C172.119 58.3138 172.29 58.1748 172.399 57.9971C172.513 57.8193 172.57 57.6188 172.57 57.3955ZM182.694 58.4004V60H177.396V58.4004H182.694ZM178.066 50.0469V60H176.016V50.0469H178.066ZM182.004 54.1006V55.6592H177.396V54.1006H182.004ZM182.688 50.0469V51.6533H177.396V50.0469H182.688ZM191.779 54.7979V58.7422C191.624 58.929 191.385 59.1318 191.062 59.3506C190.738 59.5648 190.321 59.7493 189.811 59.9043C189.3 60.0592 188.683 60.1367 187.958 60.1367C187.315 60.1367 186.73 60.0319 186.201 59.8223C185.673 59.6081 185.217 59.2959 184.834 58.8857C184.456 58.4756 184.164 57.9743 183.959 57.3818C183.754 56.7848 183.651 56.1035 183.651 55.3379V54.7158C183.651 53.9502 183.749 53.2689 183.945 52.6719C184.146 52.0749 184.431 51.5713 184.8 51.1611C185.169 50.751 185.609 50.4388 186.119 50.2246C186.63 50.0104 187.197 49.9033 187.821 49.9033C188.687 49.9033 189.398 50.0446 189.954 50.3271C190.51 50.6051 190.934 50.9925 191.226 51.4893C191.522 51.9814 191.704 52.5465 191.772 53.1846H189.783C189.733 52.8473 189.637 52.5534 189.496 52.3027C189.355 52.0521 189.152 51.8561 188.888 51.7148C188.628 51.5736 188.291 51.5029 187.876 51.5029C187.534 51.5029 187.229 51.5736 186.96 51.7148C186.696 51.8516 186.472 52.0544 186.29 52.3232C186.108 52.5921 185.969 52.9248 185.873 53.3213C185.777 53.7178 185.729 54.1781 185.729 54.7021V55.3379C185.729 55.8574 185.78 56.3177 185.88 56.7188C185.98 57.1152 186.128 57.4502 186.324 57.7236C186.525 57.9925 186.771 58.1953 187.062 58.332C187.354 58.4688 187.694 58.5371 188.081 58.5371C188.405 58.5371 188.674 58.5098 188.888 58.4551C189.106 58.4004 189.282 58.3343 189.414 58.2568C189.551 58.1748 189.656 58.0973 189.729 58.0244V56.2607H187.855V54.7979H191.779ZM198.93 50.0469H200.974V56.623C200.974 57.3887 200.81 58.0335 200.481 58.5576C200.158 59.0817 199.709 59.4759 199.135 59.7402C198.565 60.0046 197.909 60.1367 197.166 60.1367C196.423 60.1367 195.762 60.0046 195.184 59.7402C194.609 59.4759 194.158 59.0817 193.83 58.5576C193.507 58.0335 193.345 57.3887 193.345 56.623V50.0469H195.396V56.623C195.396 57.0697 195.466 57.4342 195.607 57.7168C195.749 57.9993 195.951 58.2067 196.216 58.3389C196.485 58.471 196.801 58.5371 197.166 58.5371C197.54 58.5371 197.856 58.471 198.116 58.3389C198.381 58.2067 198.581 57.9993 198.718 57.7168C198.859 57.4342 198.93 57.0697 198.93 56.623V50.0469ZM210.763 50.0469V60H208.712L204.713 53.3281V60H202.662V50.0469H204.713L208.719 56.7256V50.0469H210.763ZM215.603 60H213.436L213.449 58.4004H215.603C216.14 58.4004 216.594 58.2796 216.963 58.0381C217.332 57.792 217.61 57.4342 217.797 56.9648C217.988 56.4954 218.084 55.9281 218.084 55.2627V54.7773C218.084 54.2669 218.029 53.818 217.92 53.4307C217.815 53.0433 217.658 52.7174 217.448 52.4531C217.239 52.1888 216.981 51.9906 216.676 51.8584C216.37 51.7217 216.02 51.6533 215.623 51.6533H213.395V50.0469H215.623C216.288 50.0469 216.897 50.1608 217.448 50.3887C218.004 50.612 218.485 50.9333 218.891 51.3525C219.296 51.7718 219.608 52.2731 219.827 52.8564C220.05 53.4352 220.162 54.0801 220.162 54.791V55.2627C220.162 55.9691 220.05 56.6139 219.827 57.1973C219.608 57.7806 219.296 58.2819 218.891 58.7012C218.49 59.1159 218.009 59.4372 217.448 59.665C216.892 59.8883 216.277 60 215.603 60ZM214.598 50.0469V60H212.547V50.0469H214.598ZM225.549 51.749L222.842 60H220.661L224.359 50.0469H225.747L225.549 51.749ZM227.798 60L225.084 51.749L224.865 50.0469H226.267L229.985 60H227.798ZM227.675 56.2949V57.9014H222.418V56.2949H227.675Z" fill="#E1E1E6"/>
<rect x="70" y="32.5" width="176" height="45" rx="5.5" stroke="#047C3F"/>
<g clip-path="url(#clip0_175_1818)">
<path d="M48 181C61.8071 181 73 169.807 73 156C73 142.193 61.8071 131 48 131C34.1929 131 23 142.193 23 156C23 169.807 34.1929 181 48 181Z" fill="#6DA544"/>
<path d="M48 140.783L68.6522 156L48 171.217L27.3479 156L48 140.783Z" fill="#FFDA44"/>
<path d="M48 164.696C52.8025 164.696 56.6957 160.802 56.6957 156C56.6957 151.198 52.8025 147.304 48 147.304C43.1976 147.304 39.3044 151.198 39.3044 156C39.3044 160.802 43.1976 164.696 48 164.696Z" fill="#F0F0F0"/>
<path d="M43.6521 155.457C42.14 155.457 40.6808 155.687 39.3071 156.113C39.368 160.863 43.2355 164.696 48 164.696C50.9461 164.696 53.548 163.229 55.121 160.988C52.4299 157.619 48.2892 155.457 43.6521 155.457Z" fill="#0052B4"/>
<path d="M56.5345 157.666C56.6392 157.127 56.6957 156.57 56.6957 156C56.6957 151.197 52.8025 147.304 48.0001 147.304C44.4167 147.304 41.3405 149.472 40.0093 152.568C41.186 152.324 42.4044 152.196 43.6523 152.196C48.7028 152.196 53.2718 154.295 56.5345 157.666Z" fill="#0052B4"/>
</g>
<path d="M130.174 153.365V158.041C130.174 159.881 129.957 161.48 129.523 162.84C129.102 164.199 128.492 165.324 127.695 166.215C126.91 167.105 125.973 167.768 124.883 168.201C123.793 168.635 122.592 168.852 121.279 168.852C120.225 168.852 119.24 168.717 118.326 168.447C117.412 168.166 116.586 167.744 115.848 167.182C115.121 166.607 114.494 165.893 113.967 165.037C113.439 164.182 113.035 163.174 112.754 162.014C112.473 160.842 112.332 159.518 112.332 158.041V153.365C112.332 151.514 112.543 149.914 112.965 148.566C113.398 147.207 114.014 146.082 114.811 145.191C115.607 144.301 116.551 143.639 117.641 143.205C118.73 142.771 119.932 142.555 121.244 142.555C122.299 142.555 123.277 142.695 124.18 142.977C125.094 143.246 125.92 143.668 126.658 144.242C127.396 144.805 128.023 145.514 128.539 146.369C129.066 147.225 129.471 148.238 129.752 149.41C130.033 150.57 130.174 151.889 130.174 153.365ZM124.25 158.762V152.609C124.25 151.789 124.203 151.074 124.109 150.465C124.027 149.855 123.898 149.34 123.723 148.918C123.559 148.496 123.354 148.156 123.107 147.898C122.861 147.629 122.58 147.436 122.264 147.318C121.959 147.189 121.619 147.125 121.244 147.125C120.775 147.125 120.354 147.225 119.979 147.424C119.615 147.611 119.305 147.916 119.047 148.338C118.789 148.76 118.59 149.322 118.449 150.025C118.32 150.729 118.256 151.59 118.256 152.609V158.762C118.256 159.594 118.297 160.32 118.379 160.941C118.473 161.551 118.602 162.072 118.766 162.506C118.941 162.928 119.152 163.273 119.398 163.543C119.645 163.801 119.926 163.988 120.242 164.105C120.559 164.223 120.904 164.281 121.279 164.281C121.736 164.281 122.146 164.188 122.51 164C122.873 163.812 123.184 163.508 123.441 163.086C123.711 162.652 123.91 162.084 124.039 161.381C124.18 160.666 124.25 159.793 124.25 158.762ZM151.057 161.451C151.057 163.08 150.67 164.445 149.896 165.547C149.135 166.648 148.08 167.475 146.732 168.025C145.396 168.576 143.873 168.852 142.162 168.852C140.463 168.852 138.934 168.576 137.574 168.025C136.227 167.475 135.16 166.648 134.375 165.547C133.59 164.445 133.197 163.08 133.197 161.451C133.197 160.338 133.42 159.342 133.865 158.463C134.322 157.572 134.955 156.816 135.764 156.195C136.572 155.574 137.516 155.1 138.594 154.771C139.684 154.443 140.861 154.279 142.127 154.279C143.838 154.279 145.367 154.572 146.715 155.158C148.062 155.732 149.123 156.553 149.896 157.619C150.67 158.686 151.057 159.963 151.057 161.451ZM145.098 160.977C145.098 160.273 144.975 159.682 144.729 159.201C144.482 158.709 144.137 158.334 143.691 158.076C143.246 157.818 142.725 157.689 142.127 157.689C141.541 157.689 141.02 157.818 140.562 158.076C140.117 158.334 139.766 158.709 139.508 159.201C139.262 159.682 139.139 160.273 139.139 160.977C139.139 161.656 139.268 162.248 139.525 162.752C139.783 163.244 140.135 163.625 140.58 163.895C141.037 164.152 141.564 164.281 142.162 164.281C142.76 164.281 143.275 164.152 143.709 163.895C144.154 163.625 144.494 163.244 144.729 162.752C144.975 162.248 145.098 161.656 145.098 160.977ZM150.529 149.744C150.529 151.08 150.172 152.252 149.457 153.26C148.754 154.256 147.77 155.035 146.504 155.598C145.25 156.148 143.803 156.424 142.162 156.424C140.533 156.424 139.08 156.148 137.803 155.598C136.537 155.035 135.541 154.256 134.814 153.26C134.1 152.252 133.742 151.08 133.742 149.744C133.742 148.174 134.1 146.855 134.814 145.789C135.541 144.723 136.537 143.914 137.803 143.363C139.068 142.812 140.51 142.537 142.127 142.537C143.768 142.537 145.221 142.812 146.486 143.363C147.752 143.914 148.742 144.723 149.457 145.789C150.172 146.855 150.529 148.174 150.529 149.744ZM144.605 150.061C144.605 149.451 144.512 148.93 144.324 148.496C144.137 148.051 143.861 147.711 143.498 147.477C143.135 147.23 142.678 147.107 142.127 147.107C141.6 147.107 141.154 147.225 140.791 147.459C140.428 147.693 140.152 148.033 139.965 148.479C139.777 148.912 139.684 149.439 139.684 150.061C139.684 150.67 139.777 151.203 139.965 151.66C140.152 152.117 140.428 152.475 140.791 152.732C141.166 152.99 141.623 153.119 142.162 153.119C142.713 153.119 143.164 152.99 143.516 152.732C143.879 152.475 144.148 152.117 144.324 151.66C144.512 151.203 144.605 150.67 144.605 150.061ZM154.66 165.723C154.66 164.879 154.965 164.176 155.574 163.613C156.184 163.039 156.969 162.752 157.93 162.752C158.902 162.752 159.688 163.039 160.285 163.613C160.895 164.176 161.199 164.879 161.199 165.723C161.199 166.566 160.895 167.275 160.285 167.85C159.688 168.412 158.902 168.693 157.93 168.693C156.969 168.693 156.184 168.412 155.574 167.85C154.965 167.275 154.66 166.566 154.66 165.723ZM154.66 151.695C154.66 150.852 154.965 150.148 155.574 149.586C156.184 149.012 156.969 148.725 157.93 148.725C158.902 148.725 159.688 149.012 160.285 149.586C160.895 150.148 161.199 150.852 161.199 151.695C161.199 152.539 160.895 153.248 160.285 153.822C159.688 154.385 158.902 154.666 157.93 154.666C156.969 154.666 156.184 154.385 155.574 153.822C154.965 153.248 154.66 152.539 154.66 151.695ZM182.768 153.365V158.041C182.768 159.881 182.551 161.48 182.117 162.84C181.695 164.199 181.086 165.324 180.289 166.215C179.504 167.105 178.566 167.768 177.477 168.201C176.387 168.635 175.186 168.852 173.873 168.852C172.818 168.852 171.834 168.717 170.92 168.447C170.006 168.166 169.18 167.744 168.441 167.182C167.715 166.607 167.088 165.893 166.561 165.037C166.033 164.182 165.629 163.174 165.348 162.014C165.066 160.842 164.926 159.518 164.926 158.041V153.365C164.926 151.514 165.137 149.914 165.559 148.566C165.992 147.207 166.607 146.082 167.404 145.191C168.201 144.301 169.145 143.639 170.234 143.205C171.324 142.771 172.525 142.555 173.838 142.555C174.893 142.555 175.871 142.695 176.773 142.977C177.688 143.246 178.514 143.668 179.252 144.242C179.99 144.805 180.617 145.514 181.133 146.369C181.66 147.225 182.064 148.238 182.346 149.41C182.627 150.57 182.768 151.889 182.768 153.365ZM176.844 158.762V152.609C176.844 151.789 176.797 151.074 176.703 150.465C176.621 149.855 176.492 149.34 176.316 148.918C176.152 148.496 175.947 148.156 175.701 147.898C175.455 147.629 175.174 147.436 174.857 147.318C174.553 147.189 174.213 147.125 173.838 147.125C173.369 147.125 172.947 147.225 172.572 147.424C172.209 147.611 171.898 147.916 171.641 148.338C171.383 148.76 171.184 149.322 171.043 150.025C170.914 150.729 170.85 151.59 170.85 152.609V158.762C170.85 159.594 170.891 160.32 170.973 160.941C171.066 161.551 171.195 162.072 171.359 162.506C171.535 162.928 171.746 163.273 171.992 163.543C172.238 163.801 172.52 163.988 172.836 164.105C173.152 164.223 173.498 164.281 173.873 164.281C174.33 164.281 174.74 164.188 175.104 164C175.467 163.812 175.777 163.508 176.035 163.086C176.305 162.652 176.504 162.084 176.633 161.381C176.773 160.666 176.844 159.793 176.844 158.762ZM203.65 153.365V158.041C203.65 159.881 203.434 161.48 203 162.84C202.578 164.199 201.969 165.324 201.172 166.215C200.387 167.105 199.449 167.768 198.359 168.201C197.27 168.635 196.068 168.852 194.756 168.852C193.701 168.852 192.717 168.717 191.803 168.447C190.889 168.166 190.062 167.744 189.324 167.182C188.598 166.607 187.971 165.893 187.443 165.037C186.916 164.182 186.512 163.174 186.23 162.014C185.949 160.842 185.809 159.518 185.809 158.041V153.365C185.809 151.514 186.02 149.914 186.441 148.566C186.875 147.207 187.49 146.082 188.287 145.191C189.084 144.301 190.027 143.639 191.117 143.205C192.207 142.771 193.408 142.555 194.721 142.555C195.775 142.555 196.754 142.695 197.656 142.977C198.57 143.246 199.396 143.668 200.135 144.242C200.873 144.805 201.5 145.514 202.016 146.369C202.543 147.225 202.947 148.238 203.229 149.41C203.51 150.57 203.65 151.889 203.65 153.365ZM197.727 158.762V152.609C197.727 151.789 197.68 151.074 197.586 150.465C197.504 149.855 197.375 149.34 197.199 148.918C197.035 148.496 196.83 148.156 196.584 147.898C196.338 147.629 196.057 147.436 195.74 147.318C195.436 147.189 195.096 147.125 194.721 147.125C194.252 147.125 193.83 147.225 193.455 147.424C193.092 147.611 192.781 147.916 192.523 148.338C192.266 148.76 192.066 149.322 191.926 150.025C191.797 150.729 191.732 151.59 191.732 152.609V158.762C191.732 159.594 191.773 160.32 191.855 160.941C191.949 161.551 192.078 162.072 192.242 162.506C192.418 162.928 192.629 163.273 192.875 163.543C193.121 163.801 193.402 163.988 193.719 164.105C194.035 164.223 194.381 164.281 194.756 164.281C195.213 164.281 195.623 164.188 195.986 164C196.35 163.812 196.66 163.508 196.918 163.086C197.188 162.652 197.387 162.084 197.516 161.381C197.656 160.666 197.727 159.793 197.727 158.762Z" fill="#E1E1E6"/>
<g clip-path="url(#clip1_175_1818)">
<path d="M278.87 133.481C275.583 131.891 271.896 131 268 131C264.104 131 260.417 131.891 257.13 133.481L254.957 156L257.13 178.519C260.417 180.109 264.104 181 268 181C271.896 181 275.583 180.109 278.87 178.519L281.043 156L278.87 133.481Z" fill="#D80027"/>
<path d="M268 147.304L270.158 153.947H277.143L271.492 158.053L273.651 164.696L268 160.59L262.349 164.696L264.508 158.053L258.857 153.947H265.841L268 147.304Z" fill="#FFDA44"/>
<path d="M257.13 133.482C248.768 137.525 243 146.089 243 156C243 165.912 248.768 174.475 257.13 178.518V133.482Z" fill="#496E2D"/>
<path d="M278.87 133.482V178.518C287.232 174.475 293 165.911 293 156C293 146.089 287.232 137.525 278.87 133.482Z" fill="#FFDA44"/>
</g>
<line x1="23.0024" y1="204.5" x2="293.001" y2="205.409" stroke="#323238"/>
<g clip-path="url(#clip2_175_1818)">
<path d="M24.555 246.213C23.5501 248.922 23 251.851 23 254.909C23 257.967 23.5501 260.896 24.555 263.605L48 265.779L71.445 263.605C72.4499 260.896 73 257.967 73 254.909C73 251.851 72.4499 248.922 71.445 246.213L48 244.04L24.555 246.213Z" fill="#F0F0F0"/>
<path d="M48 229.909C37.251 229.909 28.0873 236.693 24.5551 246.213H71.4452C67.9127 236.693 58.7492 229.909 48 229.909Z" fill="#D80027"/>
<path d="M48 279.909C58.7492 279.909 67.9127 273.125 71.4451 263.605H24.5551C28.0873 273.125 37.251 279.909 48 279.909Z" fill="#6DA544"/>
</g>
<path d="M125.516 241.815V267.409H119.592V248.495L113.756 250.2V245.7L124.971 241.815H125.516ZM138.682 252.134H141.564C142.303 252.134 142.906 252.005 143.375 251.747C143.855 251.477 144.213 251.102 144.447 250.622C144.682 250.13 144.799 249.55 144.799 248.882C144.799 248.366 144.688 247.891 144.465 247.458C144.254 247.024 143.926 246.679 143.48 246.421C143.035 246.151 142.467 246.016 141.775 246.016C141.307 246.016 140.85 246.116 140.404 246.315C139.959 246.503 139.59 246.772 139.297 247.124C139.016 247.475 138.875 247.903 138.875 248.407H132.934C132.934 246.954 133.332 245.712 134.129 244.681C134.938 243.638 135.998 242.841 137.311 242.29C138.635 241.727 140.059 241.446 141.582 241.446C143.398 241.446 144.992 241.727 146.363 242.29C147.734 242.841 148.801 243.661 149.562 244.751C150.336 245.829 150.723 247.165 150.723 248.759C150.723 249.638 150.518 250.464 150.107 251.237C149.697 252.011 149.123 252.69 148.385 253.276C147.646 253.862 146.779 254.325 145.783 254.665C144.799 254.993 143.721 255.157 142.549 255.157H138.682V252.134ZM138.682 256.546V253.593H142.549C143.826 253.593 144.992 253.739 146.047 254.032C147.102 254.313 148.01 254.735 148.771 255.298C149.533 255.86 150.119 256.557 150.529 257.39C150.939 258.21 151.145 259.153 151.145 260.22C151.145 261.415 150.904 262.481 150.424 263.419C149.943 264.356 149.27 265.147 148.402 265.792C147.535 266.436 146.521 266.929 145.361 267.268C144.201 267.597 142.941 267.761 141.582 267.761C140.516 267.761 139.449 267.62 138.383 267.339C137.316 267.046 136.344 266.6 135.465 266.003C134.586 265.393 133.877 264.62 133.338 263.682C132.811 262.733 132.547 261.602 132.547 260.29H138.488C138.488 260.829 138.635 261.321 138.928 261.766C139.232 262.2 139.637 262.546 140.141 262.804C140.645 263.061 141.189 263.19 141.775 263.19C142.502 263.19 143.117 263.056 143.621 262.786C144.137 262.505 144.529 262.13 144.799 261.661C145.068 261.192 145.203 260.671 145.203 260.097C145.203 259.229 145.057 258.538 144.764 258.022C144.482 257.507 144.066 257.132 143.516 256.897C142.977 256.663 142.326 256.546 141.564 256.546H138.682ZM154.66 264.632C154.66 263.788 154.965 263.085 155.574 262.522C156.184 261.948 156.969 261.661 157.93 261.661C158.902 261.661 159.688 261.948 160.285 262.522C160.895 263.085 161.199 263.788 161.199 264.632C161.199 265.475 160.895 266.184 160.285 266.759C159.688 267.321 158.902 267.602 157.93 267.602C156.969 267.602 156.184 267.321 155.574 266.759C154.965 266.184 154.66 265.475 154.66 264.632ZM154.66 250.604C154.66 249.761 154.965 249.057 155.574 248.495C156.184 247.921 156.969 247.634 157.93 247.634C158.902 247.634 159.688 247.921 160.285 248.495C160.895 249.057 161.199 249.761 161.199 250.604C161.199 251.448 160.895 252.157 160.285 252.731C159.688 253.294 158.902 253.575 157.93 253.575C156.969 253.575 156.184 253.294 155.574 252.731C154.965 252.157 154.66 251.448 154.66 250.604ZM182.768 252.274V256.95C182.768 258.79 182.551 260.39 182.117 261.749C181.695 263.108 181.086 264.233 180.289 265.124C179.504 266.015 178.566 266.677 177.477 267.11C176.387 267.544 175.186 267.761 173.873 267.761C172.818 267.761 171.834 267.626 170.92 267.356C170.006 267.075 169.18 266.653 168.441 266.091C167.715 265.516 167.088 264.802 166.561 263.946C166.033 263.091 165.629 262.083 165.348 260.923C165.066 259.751 164.926 258.427 164.926 256.95V252.274C164.926 250.423 165.137 248.823 165.559 247.475C165.992 246.116 166.607 244.991 167.404 244.1C168.201 243.21 169.145 242.548 170.234 242.114C171.324 241.681 172.525 241.464 173.838 241.464C174.893 241.464 175.871 241.604 176.773 241.886C177.688 242.155 178.514 242.577 179.252 243.151C179.99 243.714 180.617 244.423 181.133 245.278C181.66 246.134 182.064 247.147 182.346 248.319C182.627 249.479 182.768 250.798 182.768 252.274ZM176.844 257.671V251.518C176.844 250.698 176.797 249.983 176.703 249.374C176.621 248.765 176.492 248.249 176.316 247.827C176.152 247.405 175.947 247.065 175.701 246.807C175.455 246.538 175.174 246.345 174.857 246.227C174.553 246.099 174.213 246.034 173.838 246.034C173.369 246.034 172.947 246.134 172.572 246.333C172.209 246.52 171.898 246.825 171.641 247.247C171.383 247.669 171.184 248.231 171.043 248.934C170.914 249.638 170.85 250.499 170.85 251.518V257.671C170.85 258.503 170.891 259.229 170.973 259.85C171.066 260.46 171.195 260.981 171.359 261.415C171.535 261.837 171.746 262.182 171.992 262.452C172.238 262.71 172.52 262.897 172.836 263.015C173.152 263.132 173.498 263.19 173.873 263.19C174.33 263.19 174.74 263.097 175.104 262.909C175.467 262.722 175.777 262.417 176.035 261.995C176.305 261.561 176.504 260.993 176.633 260.29C176.773 259.575 176.844 258.702 176.844 257.671ZM203.65 252.274V256.95C203.65 258.79 203.434 260.39 203 261.749C202.578 263.108 201.969 264.233 201.172 265.124C200.387 266.015 199.449 266.677 198.359 267.11C197.27 267.544 196.068 267.761 194.756 267.761C193.701 267.761 192.717 267.626 191.803 267.356C190.889 267.075 190.062 266.653 189.324 266.091C188.598 265.516 187.971 264.802 187.443 263.946C186.916 263.091 186.512 262.083 186.23 260.923C185.949 259.751 185.809 258.427 185.809 256.95V252.274C185.809 250.423 186.02 248.823 186.441 247.475C186.875 246.116 187.49 244.991 188.287 244.1C189.084 243.21 190.027 242.548 191.117 242.114C192.207 241.681 193.408 241.464 194.721 241.464C195.775 241.464 196.754 241.604 197.656 241.886C198.57 242.155 199.396 242.577 200.135 243.151C200.873 243.714 201.5 244.423 202.016 245.278C202.543 246.134 202.947 247.147 203.229 248.319C203.51 249.479 203.65 250.798 203.65 252.274ZM197.727 257.671V251.518C197.727 250.698 197.68 249.983 197.586 249.374C197.504 248.765 197.375 248.249 197.199 247.827C197.035 247.405 196.83 247.065 196.584 246.807C196.338 246.538 196.057 246.345 195.74 246.227C195.436 246.099 195.096 246.034 194.721 246.034C194.252 246.034 193.83 246.134 193.455 246.333C193.092 246.52 192.781 246.825 192.523 247.247C192.266 247.669 192.066 248.231 191.926 248.934C191.797 249.638 191.732 250.499 191.732 251.518V257.671C191.732 258.503 191.773 259.229 191.855 259.85C191.949 260.46 192.078 260.981 192.242 261.415C192.418 261.837 192.629 262.182 192.875 262.452C193.121 262.71 193.402 262.897 193.719 263.015C194.035 263.132 194.381 263.19 194.756 263.19C195.213 263.19 195.623 263.097 195.986 262.909C196.35 262.722 196.66 262.417 196.918 261.995C197.188 261.561 197.387 260.993 197.516 260.29C197.656 259.575 197.727 258.702 197.727 257.671Z" fill="#E1E1E6"/>
<g clip-path="url(#clip3_175_1818)">
<path d="M268 279.909C281.807 279.909 293 268.716 293 254.909C293 241.102 281.807 229.909 268 229.909C254.193 229.909 243 241.102 243 254.909C243 268.716 254.193 279.909 268 279.909Z" fill="#F0F0F0"/>
<path d="M268 229.909C258.089 229.909 249.524 235.677 245.481 244.04H290.519C286.476 235.677 277.911 229.909 268 229.909Z" fill="#338AF3"/>
<path d="M268 279.909C277.911 279.909 286.476 274.141 290.519 265.779H245.481C249.524 274.141 258.089 279.909 268 279.909Z" fill="#338AF3"/>
<path d="M275.472 254.909L272.419 256.345L274.045 259.302L270.729 258.668L270.309 262.017L268 259.554L265.691 262.017L265.271 258.668L261.955 259.302L263.581 256.345L260.528 254.909L263.581 253.473L261.955 250.516L265.271 251.15L265.691 247.801L268 250.264L270.309 247.801L270.729 251.15L274.045 250.516L272.419 253.473L275.472 254.909Z" fill="#FFDA44"/>
</g>
<line x1="23.0024" y1="303.409" x2="293.001" y2="304.318" stroke="#323238"/>
<g clip-path="url(#clip4_175_1818)">
<path d="M23 353.818C23 340.011 34.193 328.818 48 328.818C61.807 328.818 73 340.011 73 353.818L48 355.992L23 353.818Z" fill="#FFDA44"/>
<path d="M26.3453 366.318C30.6681 373.79 38.7466 378.818 48 378.818C57.2534 378.818 65.332 373.79 69.6547 366.318L48 364.688L26.3453 366.318Z" fill="#D80027"/>
<path d="M69.6547 366.318C71.7818 362.641 73 358.372 73 353.818H23C23 358.372 24.2182 362.641 26.3453 366.318H69.6547Z" fill="#0052B4"/>
</g>
<path d="M130.262 361.748V366.318H112.402V362.451L120.629 353.803C121.355 352.971 121.941 352.226 122.387 351.57C122.832 350.902 123.154 350.299 123.354 349.76C123.564 349.221 123.67 348.734 123.67 348.301C123.67 347.562 123.559 346.947 123.336 346.455C123.125 345.951 122.809 345.57 122.387 345.312C121.977 345.055 121.467 344.926 120.857 344.926C120.248 344.926 119.715 345.101 119.258 345.453C118.801 345.805 118.443 346.285 118.186 346.894C117.939 347.504 117.816 348.189 117.816 348.951H111.875C111.875 347.381 112.256 345.945 113.018 344.644C113.791 343.344 114.863 342.306 116.234 341.533C117.605 340.748 119.193 340.355 120.998 340.355C122.885 340.355 124.467 340.648 125.744 341.234C127.021 341.82 127.982 342.67 128.627 343.783C129.283 344.885 129.611 346.215 129.611 347.773C129.611 348.664 129.471 349.519 129.189 350.34C128.908 351.16 128.504 351.974 127.977 352.783C127.449 353.58 126.805 354.4 126.043 355.244C125.293 356.088 124.438 356.984 123.477 357.933L120.172 361.748H130.262ZM151.057 351.183V355.859C151.057 357.699 150.84 359.299 150.406 360.658C149.984 362.017 149.375 363.142 148.578 364.033C147.793 364.924 146.855 365.586 145.766 366.019C144.676 366.453 143.475 366.67 142.162 366.67C141.107 366.67 140.123 366.535 139.209 366.265C138.295 365.984 137.469 365.562 136.73 365C136.004 364.426 135.377 363.711 134.85 362.855C134.322 362 133.918 360.992 133.637 359.832C133.355 358.66 133.215 357.336 133.215 355.859V351.183C133.215 349.332 133.426 347.732 133.848 346.385C134.281 345.025 134.896 343.9 135.693 343.01C136.49 342.119 137.434 341.457 138.523 341.023C139.613 340.59 140.814 340.373 142.127 340.373C143.182 340.373 144.16 340.513 145.062 340.795C145.977 341.064 146.803 341.486 147.541 342.06C148.279 342.623 148.906 343.332 149.422 344.187C149.949 345.043 150.354 346.056 150.635 347.228C150.916 348.388 151.057 349.707 151.057 351.183ZM145.133 356.58V350.428C145.133 349.607 145.086 348.892 144.992 348.283C144.91 347.674 144.781 347.158 144.605 346.736C144.441 346.314 144.236 345.974 143.99 345.717C143.744 345.447 143.463 345.254 143.146 345.137C142.842 345.008 142.502 344.943 142.127 344.943C141.658 344.943 141.236 345.043 140.861 345.242C140.498 345.43 140.188 345.734 139.93 346.156C139.672 346.578 139.473 347.14 139.332 347.844C139.203 348.547 139.139 349.408 139.139 350.428V356.58C139.139 357.412 139.18 358.138 139.262 358.76C139.355 359.369 139.484 359.89 139.648 360.324C139.824 360.746 140.035 361.092 140.281 361.361C140.527 361.619 140.809 361.806 141.125 361.924C141.441 362.041 141.787 362.099 142.162 362.099C142.619 362.099 143.029 362.006 143.393 361.818C143.756 361.631 144.066 361.326 144.324 360.904C144.594 360.471 144.793 359.902 144.922 359.199C145.062 358.484 145.133 357.611 145.133 356.58ZM154.66 363.541C154.66 362.697 154.965 361.994 155.574 361.431C156.184 360.857 156.969 360.57 157.93 360.57C158.902 360.57 159.688 360.857 160.285 361.431C160.895 361.994 161.199 362.697 161.199 363.541C161.199 364.385 160.895 365.094 160.285 365.668C159.688 366.23 158.902 366.512 157.93 366.512C156.969 366.512 156.184 366.23 155.574 365.668C154.965 365.094 154.66 364.385 154.66 363.541ZM154.66 349.513C154.66 348.67 154.965 347.967 155.574 347.404C156.184 346.83 156.969 346.543 157.93 346.543C158.902 346.543 159.688 346.83 160.285 347.404C160.895 347.967 161.199 348.67 161.199 349.513C161.199 350.357 160.895 351.066 160.285 351.64C159.688 352.203 158.902 352.484 157.93 352.484C156.969 352.484 156.184 352.203 155.574 351.64C154.965 351.066 154.66 350.357 154.66 349.513ZM182.768 351.183V355.859C182.768 357.699 182.551 359.299 182.117 360.658C181.695 362.017 181.086 363.142 180.289 364.033C179.504 364.924 178.566 365.586 177.477 366.019C176.387 366.453 175.186 366.67 173.873 366.67C172.818 366.67 171.834 366.535 170.92 366.265C170.006 365.984 169.18 365.562 168.441 365C167.715 364.426 167.088 363.711 166.561 362.855C166.033 362 165.629 360.992 165.348 359.832C165.066 358.66 164.926 357.336 164.926 355.859V351.183C164.926 349.332 165.137 347.732 165.559 346.385C165.992 345.025 166.607 343.9 167.404 343.01C168.201 342.119 169.145 341.457 170.234 341.023C171.324 340.59 172.525 340.373 173.838 340.373C174.893 340.373 175.871 340.513 176.773 340.795C177.688 341.064 178.514 341.486 179.252 342.06C179.99 342.623 180.617 343.332 181.133 344.187C181.66 345.043 182.064 346.056 182.346 347.228C182.627 348.388 182.768 349.707 182.768 351.183ZM176.844 356.58V350.428C176.844 349.607 176.797 348.892 176.703 348.283C176.621 347.674 176.492 347.158 176.316 346.736C176.152 346.314 175.947 345.974 175.701 345.717C175.455 345.447 175.174 345.254 174.857 345.137C174.553 345.008 174.213 344.943 173.838 344.943C173.369 344.943 172.947 345.043 172.572 345.242C172.209 345.43 171.898 345.734 171.641 346.156C171.383 346.578 171.184 347.14 171.043 347.844C170.914 348.547 170.85 349.408 170.85 350.428V356.58C170.85 357.412 170.891 358.138 170.973 358.76C171.066 359.369 171.195 359.89 171.359 360.324C171.535 360.746 171.746 361.092 171.992 361.361C172.238 361.619 172.52 361.806 172.836 361.924C173.152 362.041 173.498 362.099 173.873 362.099C174.33 362.099 174.74 362.006 175.104 361.818C175.467 361.631 175.777 361.326 176.035 360.904C176.305 360.471 176.504 359.902 176.633 359.199C176.773 358.484 176.844 357.611 176.844 356.58ZM203.65 351.183V355.859C203.65 357.699 203.434 359.299 203 360.658C202.578 362.017 201.969 363.142 201.172 364.033C200.387 364.924 199.449 365.586 198.359 366.019C197.27 366.453 196.068 366.67 194.756 366.67C193.701 366.67 192.717 366.535 191.803 366.265C190.889 365.984 190.062 365.562 189.324 365C188.598 364.426 187.971 363.711 187.443 362.855C186.916 362 186.512 360.992 186.23 359.832C185.949 358.66 185.809 357.336 185.809 355.859V351.183C185.809 349.332 186.02 347.732 186.441 346.385C186.875 345.025 187.49 343.9 188.287 343.01C189.084 342.119 190.027 341.457 191.117 341.023C192.207 340.59 193.408 340.373 194.721 340.373C195.775 340.373 196.754 340.513 197.656 340.795C198.57 341.064 199.396 341.486 200.135 342.06C200.873 342.623 201.5 343.332 202.016 344.187C202.543 345.043 202.947 346.056 203.229 347.228C203.51 348.388 203.65 349.707 203.65 351.183ZM197.727 356.58V350.428C197.727 349.607 197.68 348.892 197.586 348.283C197.504 347.674 197.375 347.158 197.199 346.736C197.035 346.314 196.83 345.974 196.584 345.717C196.338 345.447 196.057 345.254 195.74 345.137C195.436 345.008 195.096 344.943 194.721 344.943C194.252 344.943 193.83 345.043 193.455 345.242C193.092 345.43 192.781 345.734 192.523 346.156C192.266 346.578 192.066 347.14 191.926 347.844C191.797 348.547 191.732 349.408 191.732 350.428V356.58C191.732 357.412 191.773 358.138 191.855 358.76C191.949 359.369 192.078 359.89 192.242 360.324C192.418 360.746 192.629 361.092 192.875 361.361C193.121 361.619 193.402 361.806 193.719 361.924C194.035 362.041 194.381 362.099 194.756 362.099C195.213 362.099 195.623 362.006 195.986 361.818C196.35 361.631 196.66 361.326 196.918 360.904C197.188 360.471 197.387 359.902 197.516 359.199C197.656 358.484 197.727 357.611 197.727 356.58Z" fill="#E1E1E6"/>
<g clip-path="url(#clip5_175_1818)">
<path d="M268 378.818C281.807 378.818 293 367.625 293 353.818C293 340.011 281.807 328.818 268 328.818C254.193 328.818 243 340.011 243 353.818C243 367.625 254.193 378.818 268 378.818Z" fill="#F0F0F0"/>
<path d="M268 364.688C274.003 364.688 278.87 359.821 278.87 353.818C278.87 347.815 274.003 342.949 268 342.949C261.997 342.949 257.13 347.815 257.13 353.818C257.13 359.821 261.997 364.688 268 364.688Z" fill="#D80027"/>
</g>
<path d="M0 0H316H0ZM316 404.818C316 409.236 312.418 412.818 308 412.818H8C3.58172 412.818 0 409.236 0 404.818C0 407.027 2.68629 408.818 6 408.818H310C313.314 408.818 316 407.027 316 404.818ZM0 410.818V0V410.818ZM316 0V410.818V0Z" fill="#047C3F" mask="url(#path-1-inside-1_175_1818)"/>
<mask id="path-32-inside-2_175_1818" fill="white">
<path d="M0 448.818C0 445.504 2.68629 442.818 6 442.818H310C313.314 442.818 316 445.504 316 448.818V847.636C316 850.95 313.314 853.636 310 853.636H6C2.6863 853.636 0 850.95 0 847.636V448.818Z"/>
</mask>
<path d="M0 448.818C0 445.504 2.68629 442.818 6 442.818H310C313.314 442.818 316 445.504 316 448.818V847.636C316 850.95 313.314 853.636 310 853.636H6C2.6863 853.636 0 850.95 0 847.636V448.818Z" fill="#1A1F1B"/>
<path d="M105.812 503.181V505.818H94.1406V503.568L99.6602 497.65C100.215 497.033 100.652 496.49 100.973 496.021C101.293 495.545 101.523 495.119 101.664 494.744C101.812 494.361 101.887 493.998 101.887 493.654C101.887 493.138 101.801 492.697 101.629 492.33C101.457 491.955 101.203 491.666 100.867 491.463C100.539 491.26 100.133 491.158 99.6484 491.158C99.1328 491.158 98.6875 491.283 98.3125 491.533C97.9453 491.783 97.6641 492.131 97.4688 492.576C97.2812 493.021 97.1875 493.525 97.1875 494.088H93.8008C93.8008 493.072 94.043 492.142 94.5273 491.299C95.0117 490.447 95.6953 489.771 96.5781 489.271C97.4609 488.763 98.5078 488.51 99.7188 488.51C100.914 488.51 101.922 488.705 102.742 489.096C103.57 489.478 104.195 490.033 104.617 490.76C105.047 491.478 105.262 492.338 105.262 493.338C105.262 493.9 105.172 494.451 104.992 494.99C104.812 495.521 104.555 496.053 104.219 496.584C103.891 497.107 103.492 497.638 103.023 498.178C102.555 498.717 102.035 499.275 101.465 499.853L98.5 503.181H105.812ZM119.875 499.443V502.092H107.582L107.418 500.041L114.531 488.756H117.215L114.309 493.619L110.77 499.443H119.875ZM117.941 488.756V505.818H114.566V488.756H117.941ZM129.133 488.756L122.875 507.283H120.367L126.625 488.756H129.133ZM138.836 488.721V505.818H135.461V492.611L131.406 493.9V491.24L138.473 488.721H138.836ZM152.617 488.721V505.818H149.242V492.611L145.188 493.9V491.24L152.254 488.721H152.617Z" fill="#F7DD43"/>
<path d="M179.296 501.342L181.989 503.474L180.697 504.596L178.045 502.463L179.296 501.342ZM182.058 497.609V498.081C182.058 498.837 181.955 499.516 181.75 500.118C181.549 500.72 181.26 501.232 180.882 501.656C180.504 502.075 180.057 502.397 179.542 502.62C179.027 502.843 178.455 502.955 177.826 502.955C177.202 502.955 176.63 502.843 176.11 502.62C175.591 502.397 175.142 502.075 174.764 501.656C174.385 501.232 174.091 500.72 173.882 500.118C173.677 499.516 173.574 498.837 173.574 498.081V497.609C173.574 496.848 173.677 496.169 173.882 495.572C174.091 494.971 174.383 494.458 174.757 494.034C175.131 493.61 175.577 493.287 176.097 493.063C176.616 492.84 177.188 492.728 177.812 492.728C178.441 492.728 179.013 492.84 179.528 493.063C180.048 493.287 180.497 493.61 180.875 494.034C181.253 494.458 181.545 494.971 181.75 495.572C181.955 496.169 182.058 496.848 182.058 497.609ZM179.986 498.081V497.596C179.986 497.067 179.936 496.602 179.836 496.201C179.74 495.8 179.599 495.463 179.412 495.189C179.23 494.916 179.004 494.711 178.735 494.574C178.466 494.433 178.159 494.362 177.812 494.362C177.466 494.362 177.159 494.433 176.89 494.574C176.621 494.711 176.395 494.916 176.213 495.189C176.031 495.463 175.892 495.8 175.796 496.201C175.7 496.602 175.652 497.067 175.652 497.596V498.081C175.652 498.605 175.7 499.07 175.796 499.475C175.892 499.876 176.031 500.216 176.213 500.494C176.4 500.767 176.628 500.975 176.896 501.116C177.17 501.257 177.48 501.328 177.826 501.328C178.173 501.328 178.478 501.257 178.742 501.116C179.011 500.975 179.237 500.767 179.419 500.494C179.606 500.216 179.747 499.876 179.843 499.475C179.938 499.07 179.986 498.605 179.986 498.081ZM189.037 492.865H191.081V499.441C191.081 500.207 190.917 500.852 190.589 501.376C190.265 501.9 189.816 502.294 189.242 502.558C188.673 502.823 188.016 502.955 187.273 502.955C186.531 502.955 185.87 502.823 185.291 502.558C184.717 502.294 184.266 501.9 183.938 501.376C183.614 500.852 183.452 500.207 183.452 499.441V492.865H185.503V499.441C185.503 499.888 185.574 500.252 185.715 500.535C185.856 500.818 186.059 501.025 186.323 501.157C186.592 501.289 186.909 501.355 187.273 501.355C187.647 501.355 187.964 501.289 188.224 501.157C188.488 501.025 188.688 500.818 188.825 500.535C188.966 500.252 189.037 499.888 189.037 499.441V492.865ZM194.95 492.865V502.818H192.906V492.865H194.95ZM204.972 492.865V502.818H202.921L198.922 496.146V502.818H196.871V492.865H198.922L202.928 499.544V492.865H204.972ZM211.001 492.865V502.818H208.957V492.865H211.001ZM214.063 492.865V494.471H205.942V492.865H214.063ZM218.541 494.567L215.834 502.818H213.653L217.352 492.865H218.739L218.541 494.567ZM220.79 502.818L218.076 494.567L217.857 492.865H219.259L222.978 502.818H220.79ZM220.667 499.113V500.72H215.41V499.113H220.667Z" fill="#E1E1E6"/>
<rect x="76.5" y="475.318" width="163" height="45" rx="5.5" stroke="#047C3F"/>
<g clip-path="url(#clip6_175_1818)">
<path d="M48 623.818C61.8071 623.818 73 612.625 73 598.818C73 585.011 61.8071 573.818 48 573.818C34.1929 573.818 23 585.011 23 598.818C23 612.625 34.1929 623.818 48 623.818Z" fill="#6DA544"/>
<path d="M48 583.601L68.6522 598.818L48 614.036L27.3479 598.818L48 583.601Z" fill="#FFDA44"/>
<path d="M48 607.514C52.8025 607.514 56.6957 603.621 56.6957 598.818C56.6957 594.016 52.8025 590.123 48 590.123C43.1976 590.123 39.3044 594.016 39.3044 598.818C39.3044 603.621 43.1976 607.514 48 607.514Z" fill="#F0F0F0"/>
<path d="M43.6521 598.275C42.14 598.275 40.6808 598.505 39.3071 598.931C39.368 603.681 43.2355 607.514 48 607.514C50.9461 607.514 53.548 606.047 55.121 603.806C52.4299 600.437 48.2892 598.275 43.6521 598.275Z" fill="#0052B4"/>
<path d="M56.5345 600.484C56.6392 599.945 56.6957 599.388 56.6957 598.818C56.6957 594.016 52.8025 590.123 48.0001 590.123C44.4167 590.123 41.3405 592.291 40.0093 595.386C41.186 595.142 42.4044 595.014 43.6523 595.014C48.7028 595.014 53.2718 597.113 56.5345 600.484Z" fill="#0052B4"/>
</g>
<path d="M130.174 596.183V600.859C130.174 602.699 129.957 604.299 129.523 605.658C129.102 607.017 128.492 608.142 127.695 609.033C126.91 609.924 125.973 610.586 124.883 611.019C123.793 611.453 122.592 611.67 121.279 611.67C120.225 611.67 119.24 611.535 118.326 611.265C117.412 610.984 116.586 610.562 115.848 610C115.121 609.426 114.494 608.711 113.967 607.855C113.439 607 113.035 605.992 112.754 604.832C112.473 603.66 112.332 602.336 112.332 600.859V596.183C112.332 594.332 112.543 592.732 112.965 591.385C113.398 590.025 114.014 588.9 114.811 588.01C115.607 587.119 116.551 586.457 117.641 586.023C118.73 585.59 119.932 585.373 121.244 585.373C122.299 585.373 123.277 585.513 124.18 585.795C125.094 586.064 125.92 586.486 126.658 587.06C127.396 587.623 128.023 588.332 128.539 589.187C129.066 590.043 129.471 591.056 129.752 592.228C130.033 593.388 130.174 594.707 130.174 596.183ZM124.25 601.58V595.428C124.25 594.607 124.203 593.892 124.109 593.283C124.027 592.674 123.898 592.158 123.723 591.736C123.559 591.314 123.354 590.974 123.107 590.717C122.861 590.447 122.58 590.254 122.264 590.137C121.959 590.008 121.619 589.943 121.244 589.943C120.775 589.943 120.354 590.043 119.979 590.242C119.615 590.43 119.305 590.734 119.047 591.156C118.789 591.578 118.59 592.14 118.449 592.844C118.32 593.547 118.256 594.408 118.256 595.428V601.58C118.256 602.412 118.297 603.138 118.379 603.76C118.473 604.369 118.602 604.89 118.766 605.324C118.941 605.746 119.152 606.092 119.398 606.361C119.645 606.619 119.926 606.806 120.242 606.924C120.559 607.041 120.904 607.099 121.279 607.099C121.736 607.099 122.146 607.006 122.51 606.818C122.873 606.631 123.184 606.326 123.441 605.904C123.711 605.471 123.91 604.902 124.039 604.199C124.18 603.484 124.25 602.611 124.25 601.58ZM151.057 604.269C151.057 605.898 150.67 607.263 149.896 608.365C149.135 609.467 148.08 610.293 146.732 610.844C145.396 611.394 143.873 611.67 142.162 611.67C140.463 611.67 138.934 611.394 137.574 610.844C136.227 610.293 135.16 609.467 134.375 608.365C133.59 607.263 133.197 605.898 133.197 604.269C133.197 603.156 133.42 602.16 133.865 601.281C134.322 600.39 134.955 599.635 135.764 599.013C136.572 598.392 137.516 597.918 138.594 597.59C139.684 597.262 140.861 597.097 142.127 597.097C143.838 597.097 145.367 597.39 146.715 597.976C148.062 598.551 149.123 599.371 149.896 600.437C150.67 601.504 151.057 602.781 151.057 604.269ZM145.098 603.795C145.098 603.092 144.975 602.5 144.729 602.019C144.482 601.527 144.137 601.152 143.691 600.894C143.246 600.637 142.725 600.508 142.127 600.508C141.541 600.508 141.02 600.637 140.562 600.894C140.117 601.152 139.766 601.527 139.508 602.019C139.262 602.5 139.139 603.092 139.139 603.795C139.139 604.474 139.268 605.066 139.525 605.57C139.783 606.062 140.135 606.443 140.58 606.713C141.037 606.971 141.564 607.099 142.162 607.099C142.76 607.099 143.275 606.971 143.709 606.713C144.154 606.443 144.494 606.062 144.729 605.57C144.975 605.066 145.098 604.474 145.098 603.795ZM150.529 592.562C150.529 593.898 150.172 595.07 149.457 596.078C148.754 597.074 147.77 597.853 146.504 598.416C145.25 598.967 143.803 599.242 142.162 599.242C140.533 599.242 139.08 598.967 137.803 598.416C136.537 597.853 135.541 597.074 134.814 596.078C134.1 595.07 133.742 593.898 133.742 592.562C133.742 590.992 134.1 589.674 134.814 588.607C135.541 587.541 136.537 586.732 137.803 586.181C139.068 585.631 140.51 585.355 142.127 585.355C143.768 585.355 145.221 585.631 146.486 586.181C147.752 586.732 148.742 587.541 149.457 588.607C150.172 589.674 150.529 590.992 150.529 592.562ZM144.605 592.879C144.605 592.269 144.512 591.748 144.324 591.314C144.137 590.869 143.861 590.529 143.498 590.295C143.135 590.049 142.678 589.926 142.127 589.926C141.6 589.926 141.154 590.043 140.791 590.277C140.428 590.512 140.152 590.851 139.965 591.297C139.777 591.73 139.684 592.258 139.684 592.879C139.684 593.488 139.777 594.021 139.965 594.478C140.152 594.935 140.428 595.293 140.791 595.551C141.166 595.808 141.623 595.937 142.162 595.937C142.713 595.937 143.164 595.808 143.516 595.551C143.879 595.293 144.148 594.935 144.324 594.478C144.512 594.021 144.605 593.488 144.605 592.879ZM154.66 608.541C154.66 607.697 154.965 606.994 155.574 606.431C156.184 605.857 156.969 605.57 157.93 605.57C158.902 605.57 159.688 605.857 160.285 606.431C160.895 606.994 161.199 607.697 161.199 608.541C161.199 609.385 160.895 610.094 160.285 610.668C159.688 611.23 158.902 611.512 157.93 611.512C156.969 611.512 156.184 611.23 155.574 610.668C154.965 610.094 154.66 609.385 154.66 608.541ZM154.66 594.513C154.66 593.67 154.965 592.967 155.574 592.404C156.184 591.83 156.969 591.543 157.93 591.543C158.902 591.543 159.688 591.83 160.285 592.404C160.895 592.967 161.199 593.67 161.199 594.513C161.199 595.357 160.895 596.066 160.285 596.64C159.688 597.203 158.902 597.484 157.93 597.484C156.969 597.484 156.184 597.203 155.574 596.64C154.965 596.066 154.66 595.357 154.66 594.513ZM182.768 596.183V600.859C182.768 602.699 182.551 604.299 182.117 605.658C181.695 607.017 181.086 608.142 180.289 609.033C179.504 609.924 178.566 610.586 177.477 611.019C176.387 611.453 175.186 611.67 173.873 611.67C172.818 611.67 171.834 611.535 170.92 611.265C170.006 610.984 169.18 610.562 168.441 610C167.715 609.426 167.088 608.711 166.561 607.855C166.033 607 165.629 605.992 165.348 604.832C165.066 603.66 164.926 602.336 164.926 600.859V596.183C164.926 594.332 165.137 592.732 165.559 591.385C165.992 590.025 166.607 588.9 167.404 588.01C168.201 587.119 169.145 586.457 170.234 586.023C171.324 585.59 172.525 585.373 173.838 585.373C174.893 585.373 175.871 585.513 176.773 585.795C177.688 586.064 178.514 586.486 179.252 587.06C179.99 587.623 180.617 588.332 181.133 589.187C181.66 590.043 182.064 591.056 182.346 592.228C182.627 593.388 182.768 594.707 182.768 596.183ZM176.844 601.58V595.428C176.844 594.607 176.797 593.892 176.703 593.283C176.621 592.674 176.492 592.158 176.316 591.736C176.152 591.314 175.947 590.974 175.701 590.717C175.455 590.447 175.174 590.254 174.857 590.137C174.553 590.008 174.213 589.943 173.838 589.943C173.369 589.943 172.947 590.043 172.572 590.242C172.209 590.43 171.898 590.734 171.641 591.156C171.383 591.578 171.184 592.14 171.043 592.844C170.914 593.547 170.85 594.408 170.85 595.428V601.58C170.85 602.412 170.891 603.138 170.973 603.76C171.066 604.369 171.195 604.89 171.359 605.324C171.535 605.746 171.746 606.092 171.992 606.361C172.238 606.619 172.52 606.806 172.836 606.924C173.152 607.041 173.498 607.099 173.873 607.099C174.33 607.099 174.74 607.006 175.104 606.818C175.467 606.631 175.777 606.326 176.035 605.904C176.305 605.471 176.504 604.902 176.633 604.199C176.773 603.484 176.844 602.611 176.844 601.58ZM203.65 596.183V600.859C203.65 602.699 203.434 604.299 203 605.658C202.578 607.017 201.969 608.142 201.172 609.033C200.387 609.924 199.449 610.586 198.359 611.019C197.27 611.453 196.068 611.67 194.756 611.67C193.701 611.67 192.717 611.535 191.803 611.265C190.889 610.984 190.062 610.562 189.324 610C188.598 609.426 187.971 608.711 187.443 607.855C186.916 607 186.512 605.992 186.23 604.832C185.949 603.66 185.809 602.336 185.809 600.859V596.183C185.809 594.332 186.02 592.732 186.441 591.385C186.875 590.025 187.49 588.9 188.287 588.01C189.084 587.119 190.027 586.457 191.117 586.023C192.207 585.59 193.408 585.373 194.721 585.373C195.775 585.373 196.754 585.513 197.656 585.795C198.57 586.064 199.396 586.486 200.135 587.06C200.873 587.623 201.5 588.332 202.016 589.187C202.543 590.043 202.947 591.056 203.229 592.228C203.51 593.388 203.65 594.707 203.65 596.183ZM197.727 601.58V595.428C197.727 594.607 197.68 593.892 197.586 593.283C197.504 592.674 197.375 592.158 197.199 591.736C197.035 591.314 196.83 590.974 196.584 590.717C196.338 590.447 196.057 590.254 195.74 590.137C195.436 590.008 195.096 589.943 194.721 589.943C194.252 589.943 193.83 590.043 193.455 590.242C193.092 590.43 192.781 590.734 192.523 591.156C192.266 591.578 192.066 592.14 191.926 592.844C191.797 593.547 191.732 594.408 191.732 595.428V601.58C191.732 602.412 191.773 603.138 191.855 603.76C191.949 604.369 192.078 604.89 192.242 605.324C192.418 605.746 192.629 606.092 192.875 606.361C193.121 606.619 193.402 606.806 193.719 606.924C194.035 607.041 194.381 607.099 194.756 607.099C195.213 607.099 195.623 607.006 195.986 606.818C196.35 606.631 196.66 606.326 196.918 605.904C197.188 605.471 197.387 604.902 197.516 604.199C197.656 603.484 197.727 602.611 197.727 601.58Z" fill="#E1E1E6"/>
<g clip-path="url(#clip7_175_1818)">
<path d="M278.87 576.299C275.583 574.71 271.896 573.818 268 573.818C264.104 573.818 260.417 574.71 257.13 576.299L254.957 598.818L257.13 621.338C260.417 622.927 264.104 623.818 268 623.818C271.896 623.818 275.583 622.927 278.87 621.338L281.043 598.818L278.87 576.299Z" fill="#D80027"/>
<path d="M268 590.123L270.158 596.765H277.143L271.492 600.871L273.651 607.514L268 603.408L262.349 607.514L264.508 600.871L258.857 596.765H265.841L268 590.123Z" fill="#FFDA44"/>
<path d="M257.13 576.3C248.768 580.343 243 588.907 243 598.818C243 608.73 248.768 617.293 257.13 621.337V576.3Z" fill="#496E2D"/>
<path d="M278.87 576.3V621.337C287.232 617.293 293 608.73 293 598.818C293 588.907 287.232 580.343 278.87 576.3Z" fill="#FFDA44"/>
</g>
<line x1="23.0024" y1="647.318" x2="293.001" y2="648.227" stroke="#323238"/>
<g clip-path="url(#clip8_175_1818)">
<path d="M24.555 689.032C23.5501 691.74 23 694.669 23 697.727C23 700.785 23.5501 703.715 24.555 706.423L48 708.597L71.445 706.423C72.4499 703.715 73 700.785 73 697.727C73 694.669 72.4499 691.74 71.445 689.032L48 686.858L24.555 689.032Z" fill="#F0F0F0"/>
<path d="M48 672.727C37.251 672.727 28.0873 679.512 24.5551 689.032H71.4452C67.9127 679.512 58.7492 672.727 48 672.727Z" fill="#D80027"/>
<path d="M48 722.727C58.7492 722.727 67.9127 715.943 71.4451 706.423H24.5551C28.0873 715.943 37.251 722.727 48 722.727Z" fill="#6DA544"/>
</g>
<path d="M125.516 684.634V710.227H119.592V691.313L113.756 693.018V688.518L124.971 684.634H125.516ZM138.682 694.952H141.564C142.303 694.952 142.906 694.823 143.375 694.565C143.855 694.296 144.213 693.921 144.447 693.44C144.682 692.948 144.799 692.368 144.799 691.7C144.799 691.184 144.688 690.71 144.465 690.276C144.254 689.842 143.926 689.497 143.48 689.239C143.035 688.969 142.467 688.835 141.775 688.835C141.307 688.835 140.85 688.934 140.404 689.134C139.959 689.321 139.59 689.591 139.297 689.942C139.016 690.294 138.875 690.721 138.875 691.225H132.934C132.934 689.772 133.332 688.53 134.129 687.499C134.938 686.456 135.998 685.659 137.311 685.108C138.635 684.546 140.059 684.264 141.582 684.264C143.398 684.264 144.992 684.546 146.363 685.108C147.734 685.659 148.801 686.479 149.562 687.569C150.336 688.647 150.723 689.983 150.723 691.577C150.723 692.456 150.518 693.282 150.107 694.055C149.697 694.829 149.123 695.509 148.385 696.094C147.646 696.68 146.779 697.143 145.783 697.483C144.799 697.811 143.721 697.975 142.549 697.975H138.682V694.952ZM138.682 699.364V696.411H142.549C143.826 696.411 144.992 696.557 146.047 696.85C147.102 697.132 148.01 697.553 148.771 698.116C149.533 698.678 150.119 699.376 150.529 700.208C150.939 701.028 151.145 701.971 151.145 703.038C151.145 704.233 150.904 705.3 150.424 706.237C149.943 707.175 149.27 707.966 148.402 708.61C147.535 709.255 146.521 709.747 145.361 710.087C144.201 710.415 142.941 710.579 141.582 710.579C140.516 710.579 139.449 710.438 138.383 710.157C137.316 709.864 136.344 709.419 135.465 708.821C134.586 708.212 133.877 707.438 133.338 706.501C132.811 705.551 132.547 704.421 132.547 703.108H138.488C138.488 703.647 138.635 704.139 138.928 704.585C139.232 705.018 139.637 705.364 140.141 705.622C140.645 705.88 141.189 706.009 141.775 706.009C142.502 706.009 143.117 705.874 143.621 705.604C144.137 705.323 144.529 704.948 144.799 704.479C145.068 704.01 145.203 703.489 145.203 702.915C145.203 702.048 145.057 701.356 144.764 700.841C144.482 700.325 144.066 699.95 143.516 699.716C142.977 699.481 142.326 699.364 141.564 699.364H138.682ZM154.66 707.45C154.66 706.606 154.965 705.903 155.574 705.341C156.184 704.766 156.969 704.479 157.93 704.479C158.902 704.479 159.688 704.766 160.285 705.341C160.895 705.903 161.199 706.606 161.199 707.45C161.199 708.294 160.895 709.003 160.285 709.577C159.688 710.139 158.902 710.421 157.93 710.421C156.969 710.421 156.184 710.139 155.574 709.577C154.965 709.003 154.66 708.294 154.66 707.45ZM154.66 693.423C154.66 692.579 154.965 691.876 155.574 691.313C156.184 690.739 156.969 690.452 157.93 690.452C158.902 690.452 159.688 690.739 160.285 691.313C160.895 691.876 161.199 692.579 161.199 693.423C161.199 694.266 160.895 694.975 160.285 695.55C159.688 696.112 158.902 696.393 157.93 696.393C156.969 696.393 156.184 696.112 155.574 695.55C154.965 694.975 154.66 694.266 154.66 693.423ZM182.768 695.092V699.768C182.768 701.608 182.551 703.208 182.117 704.567C181.695 705.926 181.086 707.051 180.289 707.942C179.504 708.833 178.566 709.495 177.477 709.928C176.387 710.362 175.186 710.579 173.873 710.579C172.818 710.579 171.834 710.444 170.92 710.175C170.006 709.893 169.18 709.471 168.441 708.909C167.715 708.335 167.088 707.62 166.561 706.764C166.033 705.909 165.629 704.901 165.348 703.741C165.066 702.569 164.926 701.245 164.926 699.768V695.092C164.926 693.241 165.137 691.641 165.559 690.294C165.992 688.934 166.607 687.809 167.404 686.919C168.201 686.028 169.145 685.366 170.234 684.932C171.324 684.499 172.525 684.282 173.838 684.282C174.893 684.282 175.871 684.423 176.773 684.704C177.688 684.973 178.514 685.395 179.252 685.969C179.99 686.532 180.617 687.241 181.133 688.096C181.66 688.952 182.064 689.966 182.346 691.137C182.627 692.298 182.768 693.616 182.768 695.092ZM176.844 700.489V694.337C176.844 693.516 176.797 692.801 176.703 692.192C176.621 691.583 176.492 691.067 176.316 690.645C176.152 690.223 175.947 689.884 175.701 689.626C175.455 689.356 175.174 689.163 174.857 689.046C174.553 688.917 174.213 688.852 173.838 688.852C173.369 688.852 172.947 688.952 172.572 689.151C172.209 689.339 171.898 689.643 171.641 690.065C171.383 690.487 171.184 691.05 171.043 691.753C170.914 692.456 170.85 693.317 170.85 694.337V700.489C170.85 701.321 170.891 702.048 170.973 702.669C171.066 703.278 171.195 703.8 171.359 704.233C171.535 704.655 171.746 705.001 171.992 705.27C172.238 705.528 172.52 705.716 172.836 705.833C173.152 705.95 173.498 706.009 173.873 706.009C174.33 706.009 174.74 705.915 175.104 705.727C175.467 705.54 175.777 705.235 176.035 704.813C176.305 704.38 176.504 703.811 176.633 703.108C176.773 702.393 176.844 701.52 176.844 700.489ZM203.65 695.092V699.768C203.65 701.608 203.434 703.208 203 704.567C202.578 705.926 201.969 707.051 201.172 707.942C200.387 708.833 199.449 709.495 198.359 709.928C197.27 710.362 196.068 710.579 194.756 710.579C193.701 710.579 192.717 710.444 191.803 710.175C190.889 709.893 190.062 709.471 189.324 708.909C188.598 708.335 187.971 707.62 187.443 706.764C186.916 705.909 186.512 704.901 186.23 703.741C185.949 702.569 185.809 701.245 185.809 699.768V695.092C185.809 693.241 186.02 691.641 186.441 690.294C186.875 688.934 187.49 687.809 188.287 686.919C189.084 686.028 190.027 685.366 191.117 684.932C192.207 684.499 193.408 684.282 194.721 684.282C195.775 684.282 196.754 684.423 197.656 684.704C198.57 684.973 199.396 685.395 200.135 685.969C200.873 686.532 201.5 687.241 202.016 688.096C202.543 688.952 202.947 689.966 203.229 691.137C203.51 692.298 203.65 693.616 203.65 695.092ZM197.727 700.489V694.337C197.727 693.516 197.68 692.801 197.586 692.192C197.504 691.583 197.375 691.067 197.199 690.645C197.035 690.223 196.83 689.884 196.584 689.626C196.338 689.356 196.057 689.163 195.74 689.046C195.436 688.917 195.096 688.852 194.721 688.852C194.252 688.852 193.83 688.952 193.455 689.151C193.092 689.339 192.781 689.643 192.523 690.065C192.266 690.487 192.066 691.05 191.926 691.753C191.797 692.456 191.732 693.317 191.732 694.337V700.489C191.732 701.321 191.773 702.048 191.855 702.669C191.949 703.278 192.078 703.8 192.242 704.233C192.418 704.655 192.629 705.001 192.875 705.27C193.121 705.528 193.402 705.716 193.719 705.833C194.035 705.95 194.381 706.009 194.756 706.009C195.213 706.009 195.623 705.915 195.986 705.727C196.35 705.54 196.66 705.235 196.918 704.813C197.188 704.38 197.387 703.811 197.516 703.108C197.656 702.393 197.727 701.52 197.727 700.489Z" fill="#E1E1E6"/>
<g clip-path="url(#clip9_175_1818)">
<path d="M268 722.727C281.807 722.727 293 711.534 293 697.727C293 683.92 281.807 672.727 268 672.727C254.193 672.727 243 683.92 243 697.727C243 711.534 254.193 722.727 268 722.727Z" fill="#F0F0F0"/>
<path d="M268 672.727C258.089 672.727 249.524 678.495 245.481 686.858H290.519C286.476 678.495 277.911 672.727 268 672.727Z" fill="#338AF3"/>
<path d="M268 722.727C277.911 722.727 286.476 716.959 290.519 708.597H245.481C249.524 716.959 258.089 722.727 268 722.727Z" fill="#338AF3"/>
<path d="M275.472 697.727L272.419 699.163L274.045 702.12L270.729 701.486L270.309 704.835L268 702.372L265.691 704.835L265.271 701.486L261.955 702.12L263.581 699.163L260.528 697.727L263.581 696.291L261.955 693.334L265.271 693.968L265.691 690.619L268 693.082L270.309 690.619L270.729 693.968L274.045 693.334L272.419 696.291L275.472 697.727Z" fill="#FFDA44"/>
</g>
<line x1="23.0024" y1="746.227" x2="293.001" y2="747.136" stroke="#323238"/>
<g clip-path="url(#clip10_175_1818)">
<path d="M23 796.636C23 782.829 34.193 771.636 48 771.636C61.807 771.636 73 782.829 73 796.636L48 798.81L23 796.636Z" fill="#FFDA44"/>
<path d="M26.3453 809.136C30.6681 816.609 38.7466 821.636 48 821.636C57.2534 821.636 65.332 816.609 69.6547 809.136L48 807.506L26.3453 809.136Z" fill="#D80027"/>
<path d="M69.6547 809.136C71.7818 805.459 73 801.19 73 796.636H23C23 801.19 24.2182 805.459 26.3453 809.136H69.6547Z" fill="#0052B4"/>
</g>
<path d="M130.262 804.566V809.136H112.402V805.269L120.629 796.621C121.355 795.789 121.941 795.045 122.387 794.388C122.832 793.72 123.154 793.117 123.354 792.578C123.564 792.039 123.67 791.552 123.67 791.119C123.67 790.38 123.559 789.765 123.336 789.273C123.125 788.769 122.809 788.388 122.387 788.13C121.977 787.873 121.467 787.744 120.857 787.744C120.248 787.744 119.715 787.92 119.258 788.271C118.801 788.623 118.443 789.103 118.186 789.713C117.939 790.322 117.816 791.007 117.816 791.769H111.875C111.875 790.199 112.256 788.763 113.018 787.463C113.791 786.162 114.863 785.125 116.234 784.351C117.605 783.566 119.193 783.173 120.998 783.173C122.885 783.173 124.467 783.466 125.744 784.052C127.021 784.638 127.982 785.488 128.627 786.601C129.283 787.703 129.611 789.033 129.611 790.591C129.611 791.482 129.471 792.338 129.189 793.158C128.908 793.978 128.504 794.793 127.977 795.601C127.449 796.398 126.805 797.218 126.043 798.062C125.293 798.906 124.438 799.802 123.477 800.752L120.172 804.566H130.262ZM151.057 794.002V798.677C151.057 800.517 150.84 802.117 150.406 803.476C149.984 804.836 149.375 805.961 148.578 806.851C147.793 807.742 146.855 808.404 145.766 808.838C144.676 809.271 143.475 809.488 142.162 809.488C141.107 809.488 140.123 809.353 139.209 809.084C138.295 808.802 137.469 808.38 136.73 807.818C136.004 807.244 135.377 806.529 134.85 805.673C134.322 804.818 133.918 803.81 133.637 802.65C133.355 801.478 133.215 800.154 133.215 798.677V794.002C133.215 792.15 133.426 790.55 133.848 789.203C134.281 787.843 134.896 786.718 135.693 785.828C136.49 784.937 137.434 784.275 138.523 783.841C139.613 783.408 140.814 783.191 142.127 783.191C143.182 783.191 144.16 783.332 145.062 783.613C145.977 783.882 146.803 784.304 147.541 784.879C148.279 785.441 148.906 786.15 149.422 787.005C149.949 787.861 150.354 788.875 150.635 790.047C150.916 791.207 151.057 792.525 151.057 794.002ZM145.133 799.398V793.246C145.133 792.425 145.086 791.711 144.992 791.101C144.91 790.492 144.781 789.976 144.605 789.554C144.441 789.132 144.236 788.793 143.99 788.535C143.744 788.265 143.463 788.072 143.146 787.955C142.842 787.826 142.502 787.761 142.127 787.761C141.658 787.761 141.236 787.861 140.861 788.06C140.498 788.248 140.188 788.552 139.93 788.974C139.672 789.396 139.473 789.959 139.332 790.662C139.203 791.365 139.139 792.226 139.139 793.246V799.398C139.139 800.23 139.18 800.957 139.262 801.578C139.355 802.187 139.484 802.709 139.648 803.142C139.824 803.564 140.035 803.91 140.281 804.179C140.527 804.437 140.809 804.625 141.125 804.742C141.441 804.859 141.787 804.918 142.162 804.918C142.619 804.918 143.029 804.824 143.393 804.636C143.756 804.449 144.066 804.144 144.324 803.722C144.594 803.289 144.793 802.72 144.922 802.017C145.062 801.302 145.133 800.429 145.133 799.398ZM154.66 806.359C154.66 805.515 154.965 804.812 155.574 804.25C156.184 803.675 156.969 803.388 157.93 803.388C158.902 803.388 159.688 803.675 160.285 804.25C160.895 804.812 161.199 805.515 161.199 806.359C161.199 807.203 160.895 807.912 160.285 808.486C159.688 809.048 158.902 809.33 157.93 809.33C156.969 809.33 156.184 809.048 155.574 808.486C154.965 807.912 154.66 807.203 154.66 806.359ZM154.66 792.332C154.66 791.488 154.965 790.785 155.574 790.222C156.184 789.648 156.969 789.361 157.93 789.361C158.902 789.361 159.688 789.648 160.285 790.222C160.895 790.785 161.199 791.488 161.199 792.332C161.199 793.175 160.895 793.884 160.285 794.459C159.688 795.021 158.902 795.302 157.93 795.302C156.969 795.302 156.184 795.021 155.574 794.459C154.965 793.884 154.66 793.175 154.66 792.332ZM182.768 794.002V798.677C182.768 800.517 182.551 802.117 182.117 803.476C181.695 804.836 181.086 805.961 180.289 806.851C179.504 807.742 178.566 808.404 177.477 808.838C176.387 809.271 175.186 809.488 173.873 809.488C172.818 809.488 171.834 809.353 170.92 809.084C170.006 808.802 169.18 808.38 168.441 807.818C167.715 807.244 167.088 806.529 166.561 805.673C166.033 804.818 165.629 803.81 165.348 802.65C165.066 801.478 164.926 800.154 164.926 798.677V794.002C164.926 792.15 165.137 790.55 165.559 789.203C165.992 787.843 166.607 786.718 167.404 785.828C168.201 784.937 169.145 784.275 170.234 783.841C171.324 783.408 172.525 783.191 173.838 783.191C174.893 783.191 175.871 783.332 176.773 783.613C177.688 783.882 178.514 784.304 179.252 784.879C179.99 785.441 180.617 786.15 181.133 787.005C181.66 787.861 182.064 788.875 182.346 790.047C182.627 791.207 182.768 792.525 182.768 794.002ZM176.844 799.398V793.246C176.844 792.425 176.797 791.711 176.703 791.101C176.621 790.492 176.492 789.976 176.316 789.554C176.152 789.132 175.947 788.793 175.701 788.535C175.455 788.265 175.174 788.072 174.857 787.955C174.553 787.826 174.213 787.761 173.838 787.761C173.369 787.761 172.947 787.861 172.572 788.06C172.209 788.248 171.898 788.552 171.641 788.974C171.383 789.396 171.184 789.959 171.043 790.662C170.914 791.365 170.85 792.226 170.85 793.246V799.398C170.85 800.23 170.891 800.957 170.973 801.578C171.066 802.187 171.195 802.709 171.359 803.142C171.535 803.564 171.746 803.91 171.992 804.179C172.238 804.437 172.52 804.625 172.836 804.742C173.152 804.859 173.498 804.918 173.873 804.918C174.33 804.918 174.74 804.824 175.104 804.636C175.467 804.449 175.777 804.144 176.035 803.722C176.305 803.289 176.504 802.72 176.633 802.017C176.773 801.302 176.844 800.429 176.844 799.398ZM203.65 794.002V798.677C203.65 800.517 203.434 802.117 203 803.476C202.578 804.836 201.969 805.961 201.172 806.851C200.387 807.742 199.449 808.404 198.359 808.838C197.27 809.271 196.068 809.488 194.756 809.488C193.701 809.488 192.717 809.353 191.803 809.084C190.889 808.802 190.062 808.38 189.324 807.818C188.598 807.244 187.971 806.529 187.443 805.673C186.916 804.818 186.512 803.81 186.23 802.65C185.949 801.478 185.809 800.154 185.809 798.677V794.002C185.809 792.15 186.02 790.55 186.441 789.203C186.875 787.843 187.49 786.718 188.287 785.828C189.084 784.937 190.027 784.275 191.117 783.841C192.207 783.408 193.408 783.191 194.721 783.191C195.775 783.191 196.754 783.332 197.656 783.613C198.57 783.882 199.396 784.304 200.135 784.879C200.873 785.441 201.5 786.15 202.016 787.005C202.543 787.861 202.947 788.875 203.229 790.047C203.51 791.207 203.65 792.525 203.65 794.002ZM197.727 799.398V793.246C197.727 792.425 197.68 791.711 197.586 791.101C197.504 790.492 197.375 789.976 197.199 789.554C197.035 789.132 196.83 788.793 196.584 788.535C196.338 788.265 196.057 788.072 195.74 787.955C195.436 787.826 195.096 787.761 194.721 787.761C194.252 787.761 193.83 787.861 193.455 788.06C193.092 788.248 192.781 788.552 192.523 788.974C192.266 789.396 192.066 789.959 191.926 790.662C191.797 791.365 191.732 792.226 191.732 793.246V799.398C191.732 800.23 191.773 800.957 191.855 801.578C191.949 802.187 192.078 802.709 192.242 803.142C192.418 803.564 192.629 803.91 192.875 804.179C193.121 804.437 193.402 804.625 193.719 804.742C194.035 804.859 194.381 804.918 194.756 804.918C195.213 804.918 195.623 804.824 195.986 804.636C196.35 804.449 196.66 804.144 196.918 803.722C197.188 803.289 197.387 802.72 197.516 802.017C197.656 801.302 197.727 800.429 197.727 799.398Z" fill="#E1E1E6"/>
<g clip-path="url(#clip11_175_1818)">
<path d="M268 821.636C281.807 821.636 293 810.443 293 796.636C293 782.829 281.807 771.636 268 771.636C254.193 771.636 243 782.829 243 796.636C243 810.443 254.193 821.636 268 821.636Z" fill="#F0F0F0"/>
<path d="M268 807.506C274.003 807.506 278.87 802.639 278.87 796.636C278.87 790.633 274.003 785.767 268 785.767C261.997 785.767 257.13 790.633 257.13 796.636C257.13 802.639 261.997 807.506 268 807.506Z" fill="#D80027"/>
</g>
<path d="M0 442.818H316H0ZM316 847.636C316 852.055 312.418 855.636 308 855.636H8C3.58172 855.636 0 852.055 0 847.636C0 849.845 2.68629 851.636 6 851.636H310C313.314 851.636 316 849.845 316 847.636ZM0 853.636V442.818V853.636ZM316 442.818V853.636V442.818Z" fill="#047C3F" mask="url(#path-32-inside-2_175_1818)"/>
<defs>
<clipPath id="clip0_175_1818">
<rect width="50" height="50" fill="white" transform="translate(23 131)"/>
</clipPath>
<clipPath id="clip1_175_1818">
<rect width="50" height="50" fill="white" transform="translate(243 131)"/>
</clipPath>
<clipPath id="clip2_175_1818">
<rect width="50" height="50" fill="white" transform="translate(23 229.909)"/>
</clipPath>
<clipPath id="clip3_175_1818">
<rect width="50" height="50" fill="white" transform="translate(243 229.909)"/>
</clipPath>
<clipPath id="clip4_175_1818">
<rect width="50" height="50" fill="white" transform="translate(23 328.818)"/>
</clipPath>
<clipPath id="clip5_175_1818">
<rect width="50" height="50" fill="white" transform="translate(243 328.818)"/>
</clipPath>
<clipPath id="clip6_175_1818">
<rect width="50" height="50" fill="white" transform="translate(23 573.818)"/>
</clipPath>
<clipPath id="clip7_175_1818">
<rect width="50" height="50" fill="white" transform="translate(243 573.818)"/>
</clipPath>
<clipPath id="clip8_175_1818">
<rect width="50" height="50" fill="white" transform="translate(23 672.727)"/>
</clipPath>
<clipPath id="clip9_175_1818">
<rect width="50" height="50" fill="white" transform="translate(243 672.727)"/>
</clipPath>
<clipPath id="clip10_175_1818">
<rect width="50" height="50" fill="white" transform="translate(23 771.636)"/>
</clipPath>
<clipPath id="clip11_175_1818">
<rect width="50" height="50" fill="white" transform="translate(243 771.636)"/>
</clipPath>
</defs>
</svg>
